<svg width="14" height="15" viewBox="0 0 14 15" fill="none" xmlns="http://www.w3.org/2000/svg">
<path d="M4.66667 0.833313V2.16665H8.66667V0.833313H10V2.16665H12.6667C13.0349 2.16665 13.3333 2.46513 13.3333 2.83331V13.5C13.3333 13.8682 13.0349 14.1666 12.6667 14.1666H0.666667C0.29848 14.1666 0 13.8682 0 13.5V2.83331C0 2.46513 0.29848 2.16665 0.666667 2.16665H3.33333V0.833313H4.66667ZM12 7.49998H1.33333V12.8333H12V7.49998ZM6 8.83331V11.5H2.66667V8.83331H6ZM3.33333 3.49998H1.33333V6.16665H12V3.49998H10V4.83331H8.66667V3.49998H4.66667V4.83331H3.33333V3.49998Z" fill="black"/>
</svg>
